#tb 0: 1/25
#media_type 0: video
#codec_id 0: rawvideo
#dimensions 0: 352x512
#sar 0: 1/1
0,          0,          0,        1,   540672, 0x34507649
0,          1,          1,        1,   540672, 0x63ce7649
0,          2,          2,        1,   540672, 0xdc707649
0,          3,          3,        1,   540672, 0x59747645
0,          4,          4,        1,   540672, 0xc13d7649
0,          5,          5,        1,   540672, 0xceed7649
0,          6,          6,        1,   540672, 0x2a177649
0,          7,          7,        1,   540672, 0x52cb7649
0,          8,          8,        1,   540672, 0xd4197649
0,          9,          9,        1,   540672, 0x18297649
0,         10,         10,        1,   540672, 0x8dc37649
0,         11,         11,        1,   540672, 0x2e207649
0,         12,         12,        1,   540672, 0x01d57649
0,         13,         13,        1,   540672, 0x11dd7649
0,         14,         14,        1,   540672, 0xfd747649
0,         15,         15,        1,   540672, 0x62d77649
0,         16,         16,        1,   540672, 0xd2127649
0,         17,         17,        1,   540672, 0x217d7649
0,         18,         18,        1,   540672, 0x38917649
0,         19,         19,        1,   540672, 0x1ef47649
0,         20,         20,        1,   540672, 0xaee97649
0,         21,         21,        1,   540672, 0x76ff7649
0,         22,         22,        1,   540672, 0xdb8e7649
0,         23,         23,        1,   540672, 0x81be7649
0,         24,         24,        1,   540672, 0x4cd77649
0,         25,         25,        1,   540672, 0x29357649
0,         26,         26,        1,   540672, 0xf2517649
0,         27,         27,        1,   540672, 0x60827649
0,         28,         28,        1,   540672, 0x619b7649
0,         29,         29,        1,   540672, 0x4a007649
0,         30,         30,        1,   540672, 0x614c7649
0,         31,         31,        1,   540672, 0xfe1e7649
0,         32,         32,        1,   540672, 0x4d6c7649
0,         33,         33,        1,   540672, 0x8a3f7649
0,         34,         34,        1,   540672, 0x19f27649
0,         35,         35,        1,   540672, 0x29d17649
0,         36,         36,        1,   540672, 0x6eb77649
0,         37,         37,        1,   540672, 0xeb0c7649
0,         38,         38,        1,   540672, 0x896a7649
0,         39,         39,        1,   540672, 0x5a6e7649
0,         40,         40,        1,   540672, 0xcc447649
0,         41,         41,        1,   540672, 0xd4717649
0,         42,         42,        1,   540672, 0x0cb57631
0,         43,         43,        1,   540672, 0x97aa7649
0,         44,         44,        1,   540672, 0x5b907649
0,         45,         45,        1,   540672, 0x49817649
0,         46,         46,        1,   540672, 0xca5f7649
0,         47,         47,        1,   540672, 0x6c997649
0,         48,         48,        1,   540672, 0xe89f7649
0,         49,         49,        1,   540672, 0x55197649
